<?xml version="1.0" encoding="utf-8"?>
<!-- Generator: Adobe Illustrator 15.0.0, SVG Export Plug-In . SVG Version: 6.00 Build 0)  -->
<!DOCTYPE svg PUBLIC "-//W3C//DTD SVG 1.1//EN" "http://www.w3.org/Graphics/SVG/1.1/DTD/svg11.dtd">
<svg version="1.1" id="Calque_1" xmlns="http://www.w3.org/2000/svg" xmlns:xlink="http://www.w3.org/1999/xlink" x="0px" y="0px"
	 width="628.711px" height="58.112px" viewBox="0 0 628.711 58.112" enable-background="new 0 0 628.711 58.112"
	 xml:space="preserve">
<g>
	<defs>
		<rect id="SVGID_1_" width="628.711" height="58.112"/>
	</defs>
	<clipPath id="SVGID_2_">
		<use xlink:href="#SVGID_1_"  overflow="visible"/>
	</clipPath>
	<path clip-path="url(#SVGID_2_)" fill="#FFFFFF" d="M151.057,39.98L0,37.98l151.057-2c1.105-0.016,2.012,0.868,2.026,1.974
		c0.015,1.104-0.868,2.011-1.973,2.026C151.095,39.98,151.071,39.98,151.057,39.98"/>
	<path clip-path="url(#SVGID_2_)" fill="#FFFFFF" d="M477.653,35.98l151.058,2l-151.058,2c-1.104,0.015-2.012-0.869-2.025-1.974
		c-0.016-1.104,0.867-2.012,1.973-2.026C477.615,35.98,477.64,35.98,477.653,35.98"/>
	
		<path clip-path="url(#SVGID_2_)" fill="none" stroke="#FFFFFF" stroke-width="4" stroke-linecap="round" stroke-miterlimit="10" d="
		M151.057,37.98l88.978,0.004c1.061,0,2.079-0.423,2.829-1.173l11.523-11.522c1.562-1.562,4.095-1.562,5.657,0l29.652,29.652
		c1.562,1.562,4.095,1.562,5.657,0l14.843-14.844c1.562-1.563,1.562-4.095,0-5.656l-9.478-9.479c-1.562-1.562-4.094-1.562-5.656,0
		l-8.844,8.843c-1.562,1.563-1.562,4.096,0,5.657l2.645,2.645c1.562,1.562,4.094,1.562,5.657,0l2.831-2.831
		c1.562-1.563,1.562-4.096,0-5.657l-9.441-9.441l-6.508-6.509c-1.563-1.562-4.095-1.562-5.657,0l-11.66,11.661l-6.555,6.554
		c-1.57,1.57-1.56,4.119,0.021,5.678l1.436,1.414c1.565,1.542,4.082,1.533,5.636-0.021l27.757-27.757l12.026-12.026
		c1.562-1.562,4.094-1.562,5.656,0l10.835,10.834c1.562,1.563,1.562,4.095,0,5.657l-6.542,6.542l-6.542-6.542
		c-1.562-1.562-1.562-4.094,0-5.657l10.834-10.834c1.562-1.562,4.095-1.562,5.656,0l12.026,12.026l27.757,27.757
		c1.555,1.554,4.07,1.563,5.636,0.021l1.436-1.414c1.582-1.559,1.591-4.107,0.021-5.678l-6.554-6.554l-11.661-11.661
		c-1.562-1.562-4.094-1.562-5.656,0l-6.509,6.509l-9.44,9.441c-1.563,1.562-1.563,4.095,0,5.657l2.832,2.831
		c1.562,1.562,4.095,1.562,5.656,0l2.645-2.645c1.562-1.562,1.562-4.095,0-5.657l-8.843-8.843c-1.563-1.562-4.096-1.562-5.657,0
		l-9.479,9.479c-1.562,1.562-1.562,4.094,0,5.656l14.845,14.844c1.562,1.562,4.094,1.562,5.655,0l29.652-29.652
		c1.563-1.562,4.095-1.562,5.657,0l11.522,11.522c0.751,0.75,1.769,1.173,2.829,1.173l88.979-0.004"/>
</g>
</svg>
